<?xml version="1.0" standalone="no"?>
<!DOCTYPE svg PUBLIC "-//W3C//DTD SVG 20010904//EN"
 "http://www.w3.org/TR/2001/REC-SVG-20010904/DTD/svg10.dtd">
<svg version="1.0" xmlns="http://www.w3.org/2000/svg"
 width="382.000000pt" height="382.000000pt" viewBox="0 0 382.000000 382.000000"
 preserveAspectRatio="xMidYMid meet">
<metadata>
Created by potrace 1.14, written by Peter Selinger 2001-2017
</metadata>
<g transform="translate(0.000000,382.000000) scale(0.100000,-0.100000)"
fill="#000000" stroke="none">
<path d="M1713 3730 c-396 -42 -794 -234 -1084 -523 -160 -160 -260 -299 -354
-492 -130 -269 -185 -503 -185 -793 0 -682 347 -1280 935 -1610 372 -209 879
-275 1314 -172 171 41 239 64 355 122 210 105 363 216 522 379 224 231 358
464 443 768 48 170 62 265 68 446 10 325 -47 590 -192 888 -122 250 -361 520
-600 679 -105 69 -337 185 -445 222 -239 82 -521 113 -777 86z m422 -345 c328
-47 587 -177 820 -410 324 -325 481 -734 446 -1167 -18 -213 -54 -350 -140
-533 -59 -123 -99 -186 -199 -312 -116 -145 -255 -261 -432 -361 -64 -36 -67
-37 -197 -40 -266 -8 -493 57 -716 205 -275 182 -434 437 -467 747 -15 135 -7
162 63 218 59 47 210 122 277 137 103 24 232 3 355 -58 186 -92 328 -282 365
-489 7 -40 16 -72 19 -72 10 0 59 136 78 215 13 51 17 113 17 230 0 180 -11
240 -70 387 -20 49 -34 91 -31 94 21 22 141 -110 195 -214 45 -86 82 -210 82
-274 0 -71 24 -42 62 75 57 176 62 208 62 382 0 225 -27 342 -124 537 -74 148
-154 248 -277 347 -216 174 -453 265 -731 278 -107 5 -145 13 -130 28 8 9 128
36 214 49 118 19 335 19 459 1z m-541 -214 c34 -6 97 -15 141 -22 101 -14 242
-60 323 -104 83 -46 228 -162 294 -234 81 -90 177 -278 214 -419 17 -66 31
-262 18 -262 -5 0 -38 32 -73 71 -117 129 -239 207 -411 260 -63 20 -96 23
-205 23 -152 0 -212 -16 -353 -91 -274 -146 -405 -361 -432 -707 -14 -180 -1
-270 70 -470 37 -107 49 -130 110 -221 166 -245 419 -424 732 -517 43 -13 78
-26 78 -29 0 -10 -86 -19 -184 -19 -285 0 -531 70 -779 221 -185 114 -335 261
-461 452 -118 180 -196 389 -225 600 -31 222 -1 515 71 697 27 69 135 245 200
327 151 191 443 388 642 433 94 21 146 24 230 11z m441 -850 c65 -37 175 -218
225 -371 18 -56 40 -240 29 -240 -2 0 -38 33 -79 73 -91 89 -184 146 -310 188
-85 29 -107 33 -215 33 -136 1 -210 -18 -322 -81 -60 -33 -63 -34 -63 -14 0
37 67 156 121 215 74 81 201 162 311 198 84 28 254 27 303 -1z"/>
</g>
</svg>
